<svg width="31" height="30" viewBox="0 0 31 30" fill="none" xmlns="http://www.w3.org/2000/svg">
<path d="M15.7275 0C7.44754 0 0.727539 6.72 0.727539 15C0.727539 23.28 7.44754 30 15.7275 30C24.0075 30 30.7275 23.28 30.7275 15C30.7275 6.72 24.0075 0 15.7275 0ZM15.7275 4.5C18.2175 4.5 20.2275 6.51 20.2275 9C20.2275 11.49 18.2175 13.5 15.7275 13.5C13.2375 13.5 11.2275 11.49 11.2275 9C11.2275 6.51 13.2375 4.5 15.7275 4.5ZM15.7275 25.8C13.9453 25.8 12.1908 25.359 10.6205 24.5162C9.0501 23.6734 7.71271 22.4552 6.72754 20.97C6.77254 17.985 12.7275 16.35 15.7275 16.35C18.7125 16.35 24.6825 17.985 24.7275 20.97C23.7424 22.4552 22.405 23.6734 20.8346 24.5162C19.2643 25.359 17.5097 25.8 15.7275 25.8Z" fill="#ECE7E4"/>
</svg>
