<svg width="33" height="30" viewBox="0 0 33 30" fill="none" xmlns="http://www.w3.org/2000/svg">
<path d="M21.8716 0L27.126 9.5012H32.7273V12.9177H30.8176L29.5789 28.4336C29.5449 28.8604 29.3584 29.2584 29.0566 29.5485C28.7547 29.8386 28.3594 29.9998 27.9491 30H4.77818C4.36786 29.9998 3.97259 29.8386 3.67073 29.5485C3.36886 29.2584 3.18242 28.8604 3.14836 28.4336L1.908 12.9177H0V9.5012H5.59964L10.8556 0L13.6898 1.70823L9.37964 9.5012H23.346L19.0375 1.70823L21.8716 0ZM18 16.3341H14.7273V23.1671H18V16.3341ZM11.4545 16.3341H8.18182V23.1671H11.4545V16.3341ZM24.5455 16.3341H21.2727V23.1671H24.5455V16.3341Z" fill="#ECE7E4"/>
</svg>
