<svg width="25" height="20" viewBox="0 0 25 20" fill="none" xmlns="http://www.w3.org/2000/svg">
<path d="M24.1071 0H0.892857C0.398996 0 0 0.40625 0 0.909091V5.45455H25V0.909091C25 0.40625 24.601 0 24.1071 0ZM0 19.0909C0 19.5938 0.398996 20 0.892857 20H24.1071C24.601 20 25 19.5938 25 19.0909V7.95455H0V19.0909ZM16.1551 13.8636C16.1551 13.7386 16.2556 13.6364 16.3783 13.6364H20.9821C21.1049 13.6364 21.2054 13.7386 21.2054 13.8636V15.9091C21.2054 16.0341 21.1049 16.1364 20.9821 16.1364H16.3783C16.2556 16.1364 16.1551 16.0341 16.1551 15.9091V13.8636Z" fill="#807F7B"/>
</svg>
