<svg width="79" height="79" viewBox="0 0 79 79" fill="none" xmlns="http://www.w3.org/2000/svg">
<path d="M71.8182 25.1337C73.7229 25.1337 75.5496 25.8904 76.8965 27.2373C78.2433 28.5843 79 30.4111 79 32.3159V46.6802C79 48.5851 78.2433 50.4119 76.8965 51.7588C75.5496 53.1057 73.7229 53.8624 71.8182 53.8624H68.0046C67.1292 60.805 63.7504 67.1896 58.5022 71.8178C53.254 76.4461 46.4973 78.9999 39.5 79V71.8178C45.2142 71.8178 50.6944 69.5478 54.7349 65.507C58.7755 61.4663 61.0455 55.9858 61.0455 50.2713V28.7248C61.0455 23.0103 58.7755 17.5299 54.7349 13.4891C50.6944 9.44838 45.2142 7.1783 39.5 7.1783C33.7858 7.1783 28.3056 9.44838 24.2651 13.4891C20.2245 17.5299 17.9545 23.0103 17.9545 28.7248V53.8624H7.18182C5.27708 53.8624 3.45036 53.1057 2.10351 51.7588C0.756654 50.4119 0 48.5851 0 46.6802V32.3159C0 30.4111 0.756654 28.5843 2.10351 27.2373C3.45036 25.8904 5.27708 25.1337 7.18182 25.1337H10.9954C11.8717 18.1918 15.2509 11.8082 20.499 7.18073C25.7471 2.55327 32.5033 0 39.5 0C46.4967 0 53.2529 2.55327 58.501 7.18073C63.7491 11.8082 67.1283 18.1918 68.0046 25.1337H71.8182ZM24.2745 53.0903L28.0809 46.9998C31.5033 49.1438 35.4615 50.2778 39.5 50.2713C43.5385 50.2778 47.4967 49.1438 50.9191 46.9998L54.7255 53.0903C50.1623 55.9494 44.8847 57.4618 39.5 57.4535C34.1153 57.4618 28.8377 55.9494 24.2745 53.0903Z" fill="#121212"/>
</svg>
