<svg width="30" height="30" viewBox="0 0 30 30" fill="none" xmlns="http://www.w3.org/2000/svg">
<path d="M0 15C0 21.4037 4.01375 26.8713 9.6625 29.0225C9.525 27.8512 9.37875 25.92 9.69375 24.565C9.965 23.4 11.445 17.1425 11.445 17.1425C11.445 17.1425 10.9987 16.2487 10.9987 14.925C10.9987 12.85 12.2013 11.3 13.7 11.3C14.975 11.3 15.59 12.2563 15.59 13.4025C15.59 14.6838 14.7738 16.5987 14.3525 18.375C14.0013 19.8612 15.0988 21.0737 16.5638 21.0737C19.2175 21.0737 21.2588 18.275 21.2588 14.235C21.2588 10.6587 18.6887 8.16 15.02 8.16C10.7725 8.16 8.27875 11.3462 8.27875 14.64C8.27875 15.9237 8.7725 17.2987 9.39 18.0475C9.44265 18.104 9.47984 18.1732 9.49801 18.2483C9.51619 18.3234 9.51472 18.4019 9.49375 18.4762C9.38 18.9487 9.1275 19.9625 9.07875 20.17C9.0125 20.4425 8.8625 20.5012 8.57875 20.3687C6.71375 19.5012 5.54875 16.775 5.54875 14.585C5.54875 9.87375 8.97 5.54875 15.4138 5.54875C20.5938 5.54875 24.62 9.24 24.62 14.1725C24.62 19.3188 21.3762 23.4612 16.8713 23.4612C15.3575 23.4612 13.9362 22.6737 13.4487 21.745C13.4487 21.745 12.7 24.5975 12.5188 25.295C12.1663 26.65 11.1887 28.365 10.5825 29.3388C11.98 29.7688 13.4625 30 15 30C23.2838 30 30 23.2838 30 15C30 6.71625 23.2838 0 15 0C6.71625 0 0 6.71625 0 15Z" fill="#ECE7E4"/>
</svg>
