<svg width="179" height="44" viewBox="0 0 179 44" fill="none" xmlns="http://www.w3.org/2000/svg">
<path d="M49.5372 3.10889C52.3391 4.90401 53.9081 5.80157 57.1583 7.4845C62.874 10.4016 65.5638 14.2162 65.1155 18.9284C65.0035 19.7138 65.0035 20.0503 64.8914 20.8357C64.6672 23.865 63.2103 25.4357 60.4084 25.7723C60.4084 25.7723 60.4084 25.7723 60.4084 25.8845C63.3223 27.343 64.2189 29.4747 63.8827 32.8406C63.6586 34.9723 63.5465 35.9821 63.4344 38.3382C63.3223 39.9089 63.2103 41.143 63.7706 42.4894C61.305 42.4894 59.9601 42.4894 57.4945 42.4894C57.2703 41.5918 57.0462 40.9186 57.3824 38.1138C57.6066 35.5333 57.7186 34.4113 57.9428 31.943C58.1669 28.9138 57.2703 27.7918 54.5805 27.2308C53.796 27.1186 53.3477 27.0064 52.5632 26.7821C52.0028 32.8406 51.6666 35.8699 50.9942 42.3772C48.5285 42.3772 47.2957 42.3772 44.8301 42.3772C46.287 29.3625 47.8561 16.2357 49.5372 3.10889ZM55.0288 22.4064C57.1583 23.0796 58.6152 22.6308 58.8394 19.9382C58.9514 18.9284 58.9514 18.4796 59.0635 17.3577C59.2877 15.0016 58.5031 13.543 56.4858 12.6455C55.4771 12.1967 54.9168 11.9723 54.0202 11.4113C53.5719 15.6747 53.3477 17.6942 53.0115 21.7333C53.796 22.0699 54.1322 22.1821 55.0288 22.4064Z" fill="#9E1E1C"/>
<path d="M67.8061 34.86C68.7027 25.9966 68.8148 23.8649 69.9355 12.7576C72.4012 13.5429 73.746 13.8795 76.3238 14.5527C75.0909 25.8844 74.9789 27.0063 74.0823 35.421C73.8581 37.3283 74.9789 38.2259 76.9962 38.2259C79.0135 38.2259 80.2464 37.3283 80.4705 35.5332C81.4792 27.4551 81.5913 27.3429 82.9361 15.7868C85.4018 16.1234 86.6346 16.2356 89.1002 16.46C87.6433 28.2405 87.5312 27.7917 86.5225 35.3088C85.9621 39.2356 82.3758 43.0503 76.3238 43.0503C70.1597 42.9381 67.3578 39.46 67.8061 34.86Z" fill="#9E1E1C"/>
<path d="M93.3586 16.3478C96.4967 16.1234 98.2899 15.7868 101.876 14.8892C103.669 23.0795 104.566 24.2014 105.687 30.1478H105.799C107.256 23.8648 108.04 21.6209 109.049 12.5331C111.739 11.6356 113.084 11.0746 115.773 9.95264C114.204 20.9478 110.73 31.3819 109.049 42.377C106.471 42.377 105.238 42.377 102.661 42.377C100.98 31.6063 100.307 30.4843 98.1778 23.7526H98.0657C96.945 31.1575 96.3846 31.6063 95.1518 42.377C92.9103 42.377 91.9016 42.377 89.6602 42.377C91.6775 27.3429 91.4533 31.9429 93.3586 16.3478Z" fill="#9E1E1C"/>
<path d="M123.058 12.421C122.049 12.7576 121.601 12.982 120.592 13.3186C121.04 11.1869 121.264 10.0649 121.489 7.70882C124.403 6.47468 125.86 5.9137 128.661 4.79175C128.325 6.92346 128.213 7.93321 127.765 10.0649C125.523 13.543 124.403 15.2259 122.161 18.2552C120.816 18.7039 120.144 18.9283 118.799 19.2649C120.48 16.7966 121.377 15.3381 123.058 12.421Z" fill="#9E1E1C"/>
<path d="M124.067 36.8796C130.679 26.6698 137.515 16.5722 143.904 6.1381C139.533 6.47468 137.179 7.26005 132.248 8.83078C132.696 6.58688 132.92 5.46493 133.257 3.22103C141.326 0.416149 144.912 -0.257022 151.413 0.0795633C151.076 2.43566 150.852 3.55761 150.292 5.91371C144.128 16.3479 137.291 26.4454 130.791 36.6552C135.386 36.6552 137.74 36.4308 142.335 36.4308C141.774 38.7869 141.55 40.021 141.214 42.4893C134.041 42.4893 130.343 42.4893 123.17 42.4893C123.394 40.1332 123.618 39.1235 124.067 36.8796Z" fill="#9E1E1C"/>
<path d="M154.551 0.41626C156.68 0.752845 157.801 0.977235 159.818 1.53821C157.465 15.3382 153.206 28.6894 150.74 42.3772C148.275 42.3772 147.042 42.3772 144.576 42.3772C147.266 28.1285 152.085 14.5528 154.551 0.41626Z" fill="#9E1E1C"/>
<path d="M163.405 2.77222C165.31 3.55758 166.207 3.89417 168.112 4.79173C166.991 11.86 166.431 14.7771 165.31 20.8356C169.121 15.5625 170.578 13.4308 173.716 7.821C175.509 8.83075 176.294 9.39173 178.087 10.2893C175.285 14.8893 174.052 16.46 171.026 20.4991C172.259 29.6991 173.716 32.5039 175.509 42.2649C172.931 42.2649 171.699 42.2649 169.121 42.2649C168 35.0844 167.328 32.3917 166.543 25.8844C165.422 27.4551 164.75 28.3527 163.517 30.0356C162.621 34.6356 162.284 36.9917 161.388 42.2649C158.922 42.2649 157.689 42.2649 155.224 42.2649C157.689 29.0259 161.276 16.0112 163.405 2.77222Z" fill="#9E1E1C"/>
<path d="M40.4591 42.6015H35.3037L40.1229 3.33325H45.2783L40.4591 42.6015Z" fill="#ECE7E4"/>
<path d="M33.3986 42.6016H28.2432L32.1658 10.4016H37.3212L33.3986 42.6016Z" fill="#ECE7E4"/>
<path d="M26.338 42.6016H21.1826L25.4414 8.38208H30.5969L26.338 42.6016Z" fill="#ECE7E4"/>
<path d="M19.2765 42.6016H14.1211L16.4747 23.4163H21.6301L19.2765 42.6016Z" fill="#ECE7E4"/>
<path d="M12.216 42.6014H7.06055L10.4228 15.4502H15.5782L12.216 42.6014Z" fill="#ECE7E4"/>
<path d="M5.15542 42.6015H0L1.90526 27.7917H6.94861L5.15542 42.6015Z" fill="#ECE7E4"/>
</svg>
