<svg width="73" height="78" viewBox="0 0 73 78" fill="none" xmlns="http://www.w3.org/2000/svg">
<path d="M34.446 77.5376C35.6352 78.1568 37.1279 78.1528 38.3171 77.5336C70.7264 60.5584 73.0281 27.3929 72.9997 17.9627C72.9967 17.2048 72.767 16.4642 72.3388 15.8316C71.9105 15.199 71.3024 14.7019 70.5889 14.4012L38.0259 0.336744C37.5077 0.114022 36.9474 -0.000676186 36.3811 2.99878e-06C35.8148 0.000682184 35.2549 0.116723 34.7372 0.340688L2.40074 14.4052C1.69769 14.706 1.09817 15.1976 0.673595 15.8214C0.249025 16.4451 0.0173059 17.1747 0.00604398 17.9233C-0.131489 27.3061 1.80611 60.5426 34.446 77.5376ZM23.0631 32.3348L32.3385 41.3785L49.7041 24.4467L55.4238 30.0236L32.3385 52.5323L17.3433 37.9117L23.0631 32.3348Z" fill="#121212"/>
</svg>
