<svg width="77" height="76" viewBox="0 0 77 76" fill="none" xmlns="http://www.w3.org/2000/svg">
<path d="M38.5 76C59.7289 76 77 58.9532 77 38C77 17.0468 59.7289 0 38.5 0C17.2711 0 0 17.0468 0 38C0 58.9532 17.2711 76 38.5 76ZM51.948 26.6C52.7157 26.5806 53.4795 26.7132 54.1943 26.9898C54.9092 27.2665 55.5608 27.6816 56.1105 28.2107C56.6603 28.7398 57.0972 29.3722 57.3954 30.0707C57.6936 30.7691 57.8471 31.5193 57.8468 32.2772C57.8466 33.0351 57.6926 33.7853 57.3939 34.4835C57.0952 35.1818 56.6579 35.8139 56.1078 36.3426C55.5577 36.8714 54.9058 37.2861 54.1908 37.5623C53.4757 37.8384 52.7118 37.9705 51.9442 37.9506C50.445 37.9118 49.0204 37.2966 47.9741 36.2361C46.9278 35.1756 46.3425 33.7537 46.343 32.2734C46.3435 30.7932 46.9298 29.3717 47.9768 28.3119C49.0238 27.2521 50.4488 26.6378 51.948 26.6ZM35.3892 52.8922C37.4426 53.2988 39.5574 53.2988 41.6108 52.8922C42.5848 52.6946 43.555 52.3944 44.4983 52.0068C45.3992 51.6268 46.2847 51.1556 47.1124 50.6084C47.9132 50.0688 48.6794 49.4456 49.3878 48.7502C50.0924 48.0586 50.7238 47.3024 51.2705 46.5006L57.6538 50.7452C55.9942 53.1729 53.8782 55.264 51.4206 56.905C48.9167 58.5727 46.1058 59.7398 43.1469 60.3402C40.0795 60.9484 36.92 60.9471 33.8531 60.3364C30.8933 59.7447 28.0823 58.5783 25.5833 56.905C23.1256 55.2599 21.0076 53.1682 19.3424 50.7414L25.7257 46.4968C26.2763 47.2986 26.9076 48.0548 27.6045 48.7388C29.7302 50.8473 32.4376 52.2918 35.3892 52.8922ZM25.025 26.6C25.7836 26.6002 26.5348 26.748 27.2356 27.0348C27.9364 27.3215 28.5731 27.7417 29.1093 28.2714C29.6456 28.801 30.0709 29.4298 30.361 30.1216C30.6511 30.8135 30.8003 31.555 30.8 32.3038C30.7997 33.0526 30.6501 33.794 30.3595 34.4857C30.069 35.1774 29.6432 35.8058 29.1066 36.3351C28.57 36.8644 27.933 37.2842 27.232 37.5705C26.531 37.8568 25.7798 38.0041 25.0211 38.0038C23.489 38.0033 22.0198 37.4021 20.9368 36.3324C19.8538 35.2627 19.2456 33.8122 19.2461 32.3C19.2467 30.7878 19.8558 29.3377 20.9395 28.2687C22.0233 27.1997 23.4929 26.5995 25.025 26.6Z" fill="#121212"/>
</svg>
