<svg width="97" height="77" viewBox="0 0 97 77" fill="none" xmlns="http://www.w3.org/2000/svg">
<path d="M94.575 52.9375H92.15V36.6803C92.15 34.7703 91.377 32.9355 90.013 31.582L74.8719 16.558C73.5078 15.2045 71.6588 14.4375 69.7339 14.4375H63.05V7.21875C63.05 3.2334 59.7914 0 55.775 0H7.275C3.25859 0 0 3.2334 0 7.21875V55.3438C0 59.3291 3.25859 62.5625 7.275 62.5625H9.7C9.7 70.5332 16.2172 77 24.25 77C32.2828 77 38.8 70.5332 38.8 62.5625H58.2C58.2 70.5332 64.7172 77 72.75 77C80.7828 77 87.3 70.5332 87.3 62.5625H94.575C95.9087 62.5625 97 61.4797 97 60.1562V55.3438C97 54.0203 95.9087 52.9375 94.575 52.9375ZM24.25 69.7812C20.2336 69.7812 16.975 66.5479 16.975 62.5625C16.975 58.5771 20.2336 55.3438 24.25 55.3438C28.2664 55.3438 31.525 58.5771 31.525 62.5625C31.525 66.5479 28.2664 69.7812 24.25 69.7812ZM72.75 69.7812C68.7336 69.7812 65.475 66.5479 65.475 62.5625C65.475 58.5771 68.7336 55.3438 72.75 55.3438C76.7664 55.3438 80.025 58.5771 80.025 62.5625C80.025 66.5479 76.7664 69.7812 72.75 69.7812ZM84.875 38.5H63.05V21.6562H69.7339L84.875 36.6803V38.5Z" fill="#121212"/>
</svg>
