<svg width="31" height="30" viewBox="0 0 31 30" fill="none" xmlns="http://www.w3.org/2000/svg">
<path d="M15.2935 0C7.00997 0 0.293457 6.71652 0.293457 15C0.293457 23.2835 7.00997 30 15.2935 30C23.5769 30 30.2935 23.2835 30.2935 15C30.2935 6.71652 23.5769 0 15.2935 0ZM22.5022 11.3069C22.5122 11.4643 22.5122 11.6283 22.5122 11.7891C22.5122 16.7042 18.7689 22.3661 11.9285 22.3661C9.81913 22.3661 7.86377 21.7533 6.21645 20.6987C6.51779 20.7321 6.80573 20.7455 7.11377 20.7455C8.85484 20.7455 10.4553 20.1563 11.731 19.1585C10.097 19.125 8.72426 18.0536 8.25551 16.5804C8.82806 16.6641 9.34368 16.6641 9.93297 16.5134C9.09165 16.3425 8.33545 15.8855 7.79284 15.2203C7.25024 14.555 6.95469 13.7223 6.9564 12.8638V12.817C7.44859 13.0949 8.02783 13.2656 8.63386 13.2891C8.1244 12.9495 7.7066 12.4895 7.41749 11.9499C7.12838 11.4102 6.97691 10.8075 6.97649 10.1953C6.97649 9.50223 7.1573 8.86942 7.48207 8.32031C8.4159 9.46988 9.58117 10.4101 10.9022 11.0798C12.2231 11.7495 13.6703 12.1338 15.1495 12.2076C14.6238 9.67969 16.5122 7.63393 18.7823 7.63393C19.8537 7.63393 20.818 8.08259 21.4977 8.8058C22.3381 8.64844 23.1417 8.33371 23.8582 7.91183C23.5803 8.77232 22.9977 9.49888 22.2243 9.95759C22.9743 9.87723 23.6975 9.66964 24.3671 9.37835C23.8615 10.1217 23.2287 10.7813 22.5022 11.3069Z" fill="#ECE7E4"/>
</svg>
